M48
; DRILL file {KiCad 9.0.2} date 2025-12-13T22:15:34-0600
; FORMAT={-:-/ absolute / metric / decimal}
; #@! TF.CreationDate,2025-12-13T22:15:34-06:00
; #@! TF.GenerationSoftware,Kicad,Pcbnew,9.0.2
; #@! TF.FileFunction,Plated,1,2,PTH
FMAT,2
METRIC
; #@! TA.AperFunction,Plated,PTH,ComponentDrill
T1C1.000
; #@! TA.AperFunction,Plated,PTH,ComponentDrill
T2C1.020
%
G90
G05
T1
X151.765Y-53.27
X154.305Y-53.27
X156.845Y-53.27
X159.385Y-53.27
T2
X129.8Y-64.0
X129.8Y-89.4
X132.34Y-64.0
X132.34Y-89.4
X134.88Y-64.0
X134.88Y-89.4
X137.42Y-64.0
X137.42Y-89.4
X139.96Y-64.0
X139.96Y-89.4
X142.5Y-64.0
X142.5Y-89.4
X145.04Y-64.0
X145.04Y-89.4
X147.58Y-64.0
X147.58Y-89.4
X150.12Y-64.0
X150.12Y-89.4
X152.66Y-64.0
X152.66Y-89.4
X155.2Y-64.0
X155.2Y-89.4
X157.74Y-64.0
X157.74Y-89.4
X160.28Y-64.0
X160.28Y-89.4
X162.82Y-64.0
X162.82Y-89.4
X165.36Y-64.0
X165.36Y-89.4
M30
