%TF.GenerationSoftware,KiCad,Pcbnew,9.0.2*%
%TF.CreationDate,2025-12-13T22:15:11-06:00*%
%TF.ProjectId,DesktopWidget,4465736b-746f-4705-9769-646765742e6b,rev?*%
%TF.SameCoordinates,Original*%
%TF.FileFunction,Legend,Top*%
%TF.FilePolarity,Positive*%
%FSLAX46Y46*%
G04 Gerber Fmt 4.6, Leading zero omitted, Abs format (unit mm)*
G04 Created by KiCad (PCBNEW 9.0.2) date 2025-12-13 22:15:11*
%MOMM*%
%LPD*%
G01*
G04 APERTURE LIST*
%ADD10C,0.150000*%
%ADD11C,0.100000*%
%ADD12C,0.200000*%
G04 APERTURE END LIST*
D10*
X145288095Y-50254819D02*
X145288095Y-51064342D01*
X145288095Y-51064342D02*
X145335714Y-51159580D01*
X145335714Y-51159580D02*
X145383333Y-51207200D01*
X145383333Y-51207200D02*
X145478571Y-51254819D01*
X145478571Y-51254819D02*
X145669047Y-51254819D01*
X145669047Y-51254819D02*
X145764285Y-51207200D01*
X145764285Y-51207200D02*
X145811904Y-51159580D01*
X145811904Y-51159580D02*
X145859523Y-51064342D01*
X145859523Y-51064342D02*
X145859523Y-50254819D01*
X146288095Y-50350057D02*
X146335714Y-50302438D01*
X146335714Y-50302438D02*
X146430952Y-50254819D01*
X146430952Y-50254819D02*
X146669047Y-50254819D01*
X146669047Y-50254819D02*
X146764285Y-50302438D01*
X146764285Y-50302438D02*
X146811904Y-50350057D01*
X146811904Y-50350057D02*
X146859523Y-50445295D01*
X146859523Y-50445295D02*
X146859523Y-50540533D01*
X146859523Y-50540533D02*
X146811904Y-50683390D01*
X146811904Y-50683390D02*
X146240476Y-51254819D01*
X146240476Y-51254819D02*
X146859523Y-51254819D01*
D11*
%TO.C,U2*%
X155625800Y-51270000D02*
X190830200Y-51270000D01*
X120421400Y-51270000D02*
X190830200Y-51270000D01*
X190830200Y-99618800D01*
X120421400Y-99618800D01*
X120421400Y-51270000D01*
D12*
X151675000Y-51270000D02*
G75*
G02*
X151475000Y-51270000I-100000J0D01*
G01*
X151475000Y-51270000D02*
G75*
G02*
X151675000Y-51270000I100000J0D01*
G01*
%TD*%
M02*
