%TF.GenerationSoftware,KiCad,Pcbnew,9.0.2*%
%TF.CreationDate,2025-12-13T22:15:11-06:00*%
%TF.ProjectId,DesktopWidget,4465736b-746f-4705-9769-646765742e6b,rev?*%
%TF.SameCoordinates,Original*%
%TF.FileFunction,Copper,L2,Bot*%
%TF.FilePolarity,Positive*%
%FSLAX46Y46*%
G04 Gerber Fmt 4.6, Leading zero omitted, Abs format (unit mm)*
G04 Created by KiCad (PCBNEW 9.0.2) date 2025-12-13 22:15:11*
%MOMM*%
%LPD*%
G01*
G04 APERTURE LIST*
%TA.AperFunction,ComponentPad*%
%ADD10R,1.508000X1.508000*%
%TD*%
%TA.AperFunction,ComponentPad*%
%ADD11C,1.508000*%
%TD*%
%TA.AperFunction,ComponentPad*%
%ADD12R,2.000000X2.000000*%
%TD*%
%TA.AperFunction,ComponentPad*%
%ADD13C,2.000000*%
%TD*%
%TA.AperFunction,Conductor*%
%ADD14C,0.200000*%
%TD*%
G04 APERTURE END LIST*
D10*
%TO.P,U2,1,GND*%
%TO.N,GND*%
X151765000Y-53270000D03*
D11*
%TO.P,U2,2,VCC_IN*%
%TO.N,Net-(U1-3V3)*%
X154305000Y-53270000D03*
%TO.P,U2,3,SCL*%
%TO.N,Net-(U1-D22)*%
X156845000Y-53270000D03*
%TO.P,U2,4,SDA*%
%TO.N,Net-(U1-D21)*%
X159385000Y-53270000D03*
%TD*%
D12*
%TO.P,U1,1,3V3*%
%TO.N,Net-(U1-3V3)*%
X129800000Y-64000000D03*
D13*
%TO.P,U1,2,GND*%
%TO.N,GND*%
X132340000Y-64000000D03*
%TO.P,U1,3,D15*%
%TO.N,unconnected-(U1-D15-Pad3)*%
X134880000Y-64000000D03*
%TO.P,U1,4,D2*%
%TO.N,unconnected-(U1-D2-Pad4)*%
X137420000Y-64000000D03*
%TO.P,U1,5,D4*%
%TO.N,unconnected-(U1-D4-Pad5)*%
X139960000Y-64000000D03*
%TO.P,U1,6,RX2*%
%TO.N,unconnected-(U1-RX2-Pad6)*%
X142500000Y-64000000D03*
%TO.P,U1,7,TX2*%
%TO.N,unconnected-(U1-TX2-Pad7)*%
X145040000Y-64000000D03*
%TO.P,U1,8,D5*%
%TO.N,unconnected-(U1-D5-Pad8)*%
X147580000Y-64000000D03*
%TO.P,U1,9,D18*%
%TO.N,unconnected-(U1-D18-Pad9)*%
X150120000Y-64000000D03*
%TO.P,U1,10,D19*%
%TO.N,unconnected-(U1-D19-Pad10)*%
X152660000Y-64000000D03*
%TO.P,U1,11,D21*%
%TO.N,Net-(U1-D21)*%
X155200000Y-64000000D03*
%TO.P,U1,12,RX0*%
%TO.N,unconnected-(U1-RX0-Pad12)*%
X157740000Y-64000000D03*
%TO.P,U1,13,TX0*%
%TO.N,unconnected-(U1-TX0-Pad13)*%
X160280000Y-64000000D03*
%TO.P,U1,14,D22*%
%TO.N,Net-(U1-D22)*%
X162820000Y-64000000D03*
%TO.P,U1,15,D23*%
%TO.N,unconnected-(U1-D23-Pad15)*%
X165360000Y-64000000D03*
%TO.P,U1,16,EN*%
%TO.N,unconnected-(U1-EN-Pad16)*%
X165360000Y-89400000D03*
%TO.P,U1,17,VP*%
%TO.N,unconnected-(U1-VP-Pad17)*%
X162820000Y-89400000D03*
%TO.P,U1,18,VN*%
%TO.N,unconnected-(U1-VN-Pad18)*%
X160280000Y-89400000D03*
%TO.P,U1,19,D34*%
%TO.N,unconnected-(U1-D34-Pad19)*%
X157740000Y-89400000D03*
%TO.P,U1,20,D35*%
%TO.N,unconnected-(U1-D35-Pad20)*%
X155200000Y-89400000D03*
%TO.P,U1,21,D32*%
%TO.N,unconnected-(U1-D32-Pad21)*%
X152660000Y-89400000D03*
%TO.P,U1,22,D33*%
%TO.N,unconnected-(U1-D33-Pad22)*%
X150120000Y-89400000D03*
%TO.P,U1,23,D25*%
%TO.N,unconnected-(U1-D25-Pad23)*%
X147580000Y-89400000D03*
%TO.P,U1,24,D26*%
%TO.N,unconnected-(U1-D26-Pad24)*%
X145040000Y-89400000D03*
%TO.P,U1,25,D27*%
%TO.N,unconnected-(U1-D27-Pad25)*%
X142500000Y-89400000D03*
%TO.P,U1,26,D14*%
%TO.N,unconnected-(U1-D14-Pad26)*%
X139960000Y-89400000D03*
%TO.P,U1,27,D12*%
%TO.N,unconnected-(U1-D12-Pad27)*%
X137420000Y-89400000D03*
%TO.P,U1,28,D13*%
%TO.N,unconnected-(U1-D13-Pad28)*%
X134880000Y-89400000D03*
%TO.P,U1,29,GND*%
%TO.N,GND*%
X132340000Y-89400000D03*
%TO.P,U1,30,VIN*%
%TO.N,unconnected-(U1-VIN-Pad30)*%
X129800000Y-89400000D03*
%TD*%
D14*
%TO.N,GND*%
X132340000Y-64000000D02*
X143070000Y-53270000D01*
X143070000Y-53270000D02*
X151765000Y-53270000D01*
X132340000Y-64000000D02*
X132340000Y-89400000D01*
%TO.N,Net-(U1-D21)*%
X159385000Y-59815000D02*
X155200000Y-64000000D01*
X149885000Y-62770000D02*
X149885000Y-62800000D01*
X159385000Y-53270000D02*
X159385000Y-59815000D01*
%TD*%
M02*
