%TF.GenerationSoftware,KiCad,Pcbnew,9.0.2*%
%TF.CreationDate,2025-12-13T22:15:11-06:00*%
%TF.ProjectId,DesktopWidget,4465736b-746f-4705-9769-646765742e6b,rev?*%
%TF.SameCoordinates,Original*%
%TF.FileFunction,Legend,Bot*%
%TF.FilePolarity,Positive*%
%FSLAX46Y46*%
G04 Gerber Fmt 4.6, Leading zero omitted, Abs format (unit mm)*
G04 Created by KiCad (PCBNEW 9.0.2) date 2025-12-13 22:15:11*
%MOMM*%
%LPD*%
G01*
G04 APERTURE LIST*
%ADD10C,0.150000*%
%ADD11C,0.127000*%
%ADD12C,0.200000*%
G04 APERTURE END LIST*
D10*
X117409819Y-64583095D02*
X118219342Y-64583095D01*
X118219342Y-64583095D02*
X118314580Y-64630714D01*
X118314580Y-64630714D02*
X118362200Y-64678333D01*
X118362200Y-64678333D02*
X118409819Y-64773571D01*
X118409819Y-64773571D02*
X118409819Y-64964047D01*
X118409819Y-64964047D02*
X118362200Y-65059285D01*
X118362200Y-65059285D02*
X118314580Y-65106904D01*
X118314580Y-65106904D02*
X118219342Y-65154523D01*
X118219342Y-65154523D02*
X117409819Y-65154523D01*
X118409819Y-66154523D02*
X118409819Y-65583095D01*
X118409819Y-65868809D02*
X117409819Y-65868809D01*
X117409819Y-65868809D02*
X117552676Y-65773571D01*
X117552676Y-65773571D02*
X117647914Y-65678333D01*
X117647914Y-65678333D02*
X117695533Y-65583095D01*
D11*
%TO.C,U1*%
X119840000Y-62420000D02*
X119840000Y-73489000D01*
X119840000Y-62420000D02*
X119840000Y-90930000D01*
X119840000Y-73489000D02*
X119840000Y-80200000D01*
X119840000Y-80200000D02*
X119840000Y-90930000D01*
X119840000Y-90930000D02*
X170790000Y-90930000D01*
X119840000Y-90930000D02*
X170790000Y-90930000D01*
X170790000Y-62420000D02*
X119840000Y-62420000D01*
X170790000Y-62420000D02*
X119840000Y-62420000D01*
X170790000Y-67790000D02*
X170790000Y-85480000D01*
X170790000Y-85480000D02*
X170790000Y-90930000D01*
X170790000Y-90930000D02*
X170790000Y-62420000D01*
D12*
X129900000Y-61850000D02*
G75*
G02*
X129700000Y-61850000I-100000J0D01*
G01*
X129700000Y-61850000D02*
G75*
G02*
X129900000Y-61850000I100000J0D01*
G01*
%TD*%
M02*
